<svg width="491" height="491" viewBox="0 0 491 491" fill="none" xmlns="http://www.w3.org/2000/svg">
<path d="M245.333 405.333C333.699 405.333 405.333 333.699 405.333 245.333C405.333 156.967 333.699 85.333 245.333 85.333C156.967 85.333 85.333 156.967 85.333 245.333C85.333 333.699 156.967 405.333 245.333 405.333Z" fill="#949494"/>
<circle cx="317" cy="312" r="15" fill="#C4C4C4"/>
<circle cx="142.5" cy="257.5" r="12.5" fill="#C4C4C4"/>
<path d="M245.333 405.333C156.967 405.333 85.333 333.699 85.333 245.333C85.333 156.967 156.967 85.333 245.333 85.333C333.699 85.333 405.333 156.967 405.333 245.333C405.239 333.66 333.66 405.239 245.333 405.333ZM245.333 106.667C168.75 106.667 106.666 168.75 106.666 245.334C106.666 321.918 168.75 384 245.333 384C321.916 384 384 321.917 384 245.333C383.906 168.789 321.878 106.761 245.333 106.667Z" fill="black"/>
<circle cx="206.5" cy="150.5" r="20.5" fill="#C4C4C4"/>
<circle cx="295" cy="215" r="22" fill="#C4C4C4"/>
<circle cx="229.5" cy="260.5" r="15.5" fill="#C4C4C4"/>
<circle cx="317.5" cy="156.5" r="6.5" fill="#C4C4C4"/>
<circle cx="222" cy="346" r="10" fill="#C4C4C4"/>
</svg>
