<svg width="480" height="480" viewBox="0 0 480 480" fill="none" xmlns="http://www.w3.org/2000/svg">
<g clip-path="url(#clip0_4_67)">
<path d="M287.335 317.77C356.611 317.77 412.77 261.611 412.77 192.335C412.77 123.058 356.611 66.8988 287.335 66.8988C218.058 66.8988 161.899 123.058 161.899 192.335C161.899 261.611 218.058 317.77 287.335 317.77Z" fill="#949494"/>
<ellipse cx="343.52" cy="244.6" rx="11.7596" ry="11.7595" fill="#C4C4C4"/>
<ellipse cx="206.716" cy="201.873" rx="9.79963" ry="9.79973" fill="#C4C4C4"/>
<path d="M287.335 317.77C218.058 317.77 161.899 261.611 161.899 192.335C161.899 123.058 218.058 66.8988 287.335 66.8988C356.611 66.8988 412.77 123.058 412.77 192.335C412.697 261.581 356.581 317.697 287.335 317.77ZM287.335 83.6241C227.296 83.6241 178.623 132.296 178.623 192.335C178.623 252.375 227.296 301.046 287.335 301.046C347.374 301.046 396.046 252.374 396.046 192.335C395.972 132.326 347.344 83.6978 287.335 83.6241Z" fill="black"/>
<ellipse cx="256.891" cy="117.988" rx="16.0714" ry="16.0714" fill="#C4C4C4"/>
<ellipse cx="326.272" cy="168.554" rx="17.2474" ry="17.2473" fill="#C4C4C4"/>
<ellipse cx="274.922" cy="204.225" rx="12.1516" ry="12.1516" fill="#C4C4C4"/>
<ellipse cx="343.912" cy="122.692" rx="5.09583" ry="5.09581" fill="#C4C4C4"/>
<ellipse cx="269.042" cy="271.255" rx="7.83971" ry="7.83972" fill="#C4C4C4"/>
<path d="M383.605 296C377.754 296 371.918 296.586 366.18 297.742C361.855 276.16 347.875 257.75 328.25 247.785C308.621 237.82 285.508 237.402 265.531 246.648C247.453 196.852 192.43 171.141 142.633 189.219C92.8359 207.301 67.1249 262.324 85.2031 312.121C41.582 313.5 7.12494 349.602 7.78119 393.242C8.43354 436.879 43.9609 471.93 87.6054 472H383.605C432.207 472 471.605 432.602 471.605 384C471.605 335.398 432.207 296 383.605 296V296Z" fill="#A3D4F7"/>
<path d="M383.605 288C379.773 288 375.945 288.23 372.141 288.688C372.07 288.449 371.965 288.223 371.891 287.984C414.848 250.387 427.664 188.867 403.293 137.246C378.922 85.6289 323.277 56.4258 266.953 65.6992C210.625 74.9766 167.281 120.477 160.75 177.184C109.641 184.59 71.6953 228.355 71.6054 280C71.6094 288.434 72.6601 296.832 74.7226 305.008C29.3086 311.938 -3.13675 352.641 0.238254 398.461C3.60935 444.281 41.664 479.793 87.6054 480H383.605C436.625 480 479.605 437.02 479.605 384C479.605 330.98 436.625 288 383.605 288V288ZM287.605 80C333.289 79.9766 374.402 107.719 391.48 150.086C408.562 192.457 398.184 240.957 365.262 272.625C365.109 272.367 364.918 272.137 364.773 271.879C363.402 269.539 361.926 267.273 360.34 265.09C359.539 263.977 358.691 262.91 357.836 261.848C356.98 260.785 356.051 259.727 355.125 258.695C353.242 256.586 351.246 254.582 349.148 252.688C348.652 252.23 348.156 251.785 347.652 251.344C343.23 247.531 338.402 244.223 333.254 241.473C332.539 241.09 331.812 240.754 331.094 240.391C328.664 239.195 326.176 238.129 323.637 237.191C322.191 236.66 320.723 236.148 319.23 235.664C318.02 235.297 316.828 234.91 315.598 234.602C312.918 233.91 310.203 233.363 307.469 232.953C306.668 232.84 305.867 232.754 305.07 232.664C293.211 231.133 281.156 232.387 269.867 236.328C268.801 234.066 267.676 231.855 266.492 229.695C265.965 228.742 265.363 227.84 264.812 226.91C264.102 225.727 263.422 224.512 262.668 223.367C261.918 222.223 261.254 221.352 260.539 220.344C259.828 219.336 259.172 218.336 258.445 217.367C257.715 216.398 256.844 215.383 256.043 214.391C255.246 213.398 254.605 212.566 253.844 211.695C253.086 210.824 252.125 209.863 251.27 208.945C250.414 208.023 249.668 207.207 248.867 206.383C248.07 205.559 247.027 204.664 246.109 203.816C245.187 202.969 244.414 202.215 243.523 201.414C242.637 200.617 241.59 199.816 240.613 199.055C239.637 198.297 238.797 197.559 237.859 196.855C236.926 196.152 235.836 195.434 234.82 194.727C233.805 194.023 232.891 193.344 231.902 192.703C230.91 192.062 229.789 191.426 228.699 190.793C227.613 190.16 226.676 189.543 225.637 188.969C224.598 188.391 223.461 187.855 222.371 187.305C221.285 186.754 220.238 186.184 219.172 185.703C218.109 185.223 216.941 184.742 215.82 184.273C214.699 183.801 213.598 183.305 212.461 182.871C211.324 182.441 210.172 182.07 209.02 181.672C207.867 181.273 206.715 180.871 205.539 180.496C204.363 180.121 203.23 179.871 202.078 179.559C200.926 179.246 199.676 178.895 198.43 178.617C197.18 178.336 196.102 178.152 194.926 177.93C193.75 177.703 192.437 177.434 191.18 177.238C189.926 177.047 188.781 176.945 187.598 176.801C186.414 176.656 185.078 176.488 183.797 176.383C182.516 176.281 181.398 176.258 180.18 176.207C179.043 176.121 178.004 176 176.883 176C184.879 120.973 232 80.1172 287.605 80V80ZM383.605 464H87.6054C48.164 464.172 15.9375 432.559 15.3476 393.121C14.7617 353.684 46.0312 321.125 85.4609 320.121C88.0195 320.047 90.3906 318.754 91.8359 316.641C93.2851 314.531 93.6328 311.852 92.7734 309.441C83.5195 283.691 86.8164 255.094 101.687 232.125C116.559 209.156 141.297 194.445 168.582 192.352C170.902 192.168 173.219 191.992 175.582 191.992C212.316 192.141 245.129 215.008 257.98 249.426C258.758 251.512 260.367 253.184 262.426 254.031C264.484 254.883 266.805 254.836 268.828 253.902C277.219 250.008 286.355 247.996 295.605 248C298.496 248.027 301.383 248.242 304.246 248.648C304.836 248.727 305.445 248.793 306.043 248.887C308.5 249.301 310.934 249.855 313.324 250.551C314.316 250.84 315.293 251.152 316.27 251.488C318.148 252.121 319.98 252.848 321.781 253.656C323.187 254.289 324.555 254.984 325.902 255.711C326.91 256.246 327.883 256.824 328.852 257.414C330.758 258.582 332.602 259.844 334.371 261.199C335.246 261.863 336.117 262.535 336.949 263.246C338.02 264.152 339.078 265.063 340.086 266.039C341.594 267.5 343.027 269.039 344.379 270.648C345.07 271.449 345.715 272.246 346.363 273.129C347.879 275.086 349.277 277.129 350.555 279.246C350.828 279.703 351.07 280.176 351.355 280.633C352.805 283.18 354.086 285.82 355.18 288.535C356.566 292.016 357.637 295.617 358.379 299.289C359.254 303.621 363.473 306.426 367.805 305.551C373.008 304.52 378.301 304 383.605 304C427.789 304 463.605 339.816 463.605 384C463.605 428.184 427.789 464 383.605 464V464Z" fill="black"/>
</g>
<defs>
<clipPath id="clip0_4_67">
<rect width="480" height="480" fill="white"/>
</clipPath>
</defs>
</svg>
