<svg width="480" height="480" viewBox="0 0 480 480" fill="none" xmlns="http://www.w3.org/2000/svg">
<g clip-path="url(#clip0_4_111)">
<path d="M319.886 298.236C380.356 298.236 429.377 246.59 429.377 182.88C429.377 119.17 380.356 67.5232 319.886 67.5232C259.415 67.5232 210.395 119.17 210.395 182.88C210.395 246.59 259.415 298.236 319.886 298.236Z" fill="#949494"/>
<path d="M368.929 241.76C374.598 241.76 379.194 236.918 379.194 230.945C379.194 224.972 374.598 220.13 368.929 220.13C363.26 220.13 358.664 224.972 358.664 230.945C358.664 236.918 363.26 241.76 368.929 241.76Z" fill="#C4C4C4"/>
<path d="M249.515 200.664C254.24 200.664 258.069 196.629 258.069 191.652C258.069 186.674 254.24 182.639 249.515 182.639C244.791 182.639 240.961 186.674 240.961 191.652C240.961 196.629 244.791 200.664 249.515 200.664Z" fill="#C4C4C4"/>
<path d="M293.312 129.287C301.059 129.287 307.34 122.67 307.34 114.507C307.34 106.344 301.059 99.7271 293.312 99.7271C285.564 99.7271 279.283 106.344 279.283 114.507C279.283 122.67 285.564 129.287 293.312 129.287Z" fill="#C4C4C4"/>
<path d="M353.874 176.872C362.188 176.872 368.929 169.77 368.929 161.01C368.929 152.25 362.188 145.149 353.874 145.149C345.559 145.149 338.819 152.25 338.819 161.01C338.819 169.77 345.559 176.872 353.874 176.872Z" fill="#C4C4C4"/>
<path d="M309.051 204.99C314.909 204.99 319.658 199.987 319.658 193.815C319.658 187.643 314.909 182.639 309.051 182.639C303.193 182.639 298.444 187.643 298.444 193.815C298.444 199.987 303.193 204.99 309.051 204.99Z" fill="#C4C4C4"/>
<path d="M369.271 123.519C371.727 123.519 373.719 121.421 373.719 118.833C373.719 116.245 371.727 114.147 369.271 114.147C366.814 114.147 364.823 116.245 364.823 118.833C364.823 121.421 366.814 123.519 369.271 123.519Z" fill="#C4C4C4"/>
<path d="M303.919 262.668C307.698 262.668 310.762 259.44 310.762 255.458C310.762 251.477 307.698 248.249 303.919 248.249C300.139 248.249 297.075 251.477 297.075 255.458C297.075 259.44 300.139 262.668 303.919 262.668Z" fill="#C4C4C4"/>
<path d="M371.031 376C401.203 376.727 429.395 361.043 444.691 335.031C459.988 309.02 459.988 276.758 444.691 250.746C429.395 224.73 401.203 209.051 371.031 209.777C365.391 209.777 359.766 210.332 354.23 211.426C347.305 179.402 318.859 156.633 286.098 156.887C276.078 156.891 266.18 159.031 257.055 163.168C240.992 121.879 198.016 97.668 154.379 105.324C110.738 112.98 78.5703 150.371 77.5195 194.664C77.543 205.016 79.3789 215.281 82.9453 225C55.8008 225.16 30.8281 239.879 17.543 263.547C4.2539 287.219 4.69531 316.203 18.6953 339.457C32.6953 362.715 58.1016 376.664 85.2383 376" fill="#A3D4F7"/>
<path d="M336 408C336 425.672 321.672 440 304 440C286.328 440 272 425.672 272 408C272 384 304 328 304 328C304 328 336 384 336 408Z" fill="#60A2D7"/>
<path d="M256 328C256 345.672 241.672 360 224 360C206.328 360 192 345.672 192 328C192 304 224 248 224 248C224 248 256 304 256 328Z" fill="#60A2D7"/>
<path d="M184 424C184 441.672 169.672 456 152 456C134.328 456 120 441.672 120 424C120 400 152 344 152 344C152 344 184 400 184 424Z" fill="#60A2D7"/>
<path d="M304 448C326.082 447.973 343.973 430.082 344 408C344 382.609 314.328 329.953 310.945 324C309.402 321.668 306.797 320.262 304 320.262C301.203 320.262 298.598 321.668 297.055 324C293.672 329.953 264 382.609 264 408C264.027 430.082 281.918 447.973 304 448ZM304 344.754C314.098 364.09 328 393.855 328 408C328 421.254 317.254 432 304 432C290.746 432 280 421.254 280 408C280 393.855 293.902 364.09 304 344.754Z" fill="black"/>
<path d="M224 368C246.082 367.973 263.973 350.082 264 328C264 302.609 234.328 249.953 230.945 244C229.402 241.668 226.797 240.262 224 240.262C221.203 240.262 218.598 241.668 217.055 244C213.672 249.953 184 302.609 184 328C184.027 350.082 201.918 367.973 224 368ZM224 264.754C234.098 284.09 248 313.855 248 328C248 341.254 237.254 352 224 352C210.746 352 200 341.254 200 328C200 313.855 213.902 284.09 224 264.754Z" fill="black"/>
<path d="M145.055 340C141.672 345.953 112 398.609 112 424C112 446.09 129.91 464 152 464C174.09 464 192 446.09 192 424C192 398.609 162.328 345.953 158.945 340C157.402 337.668 154.797 336.262 152 336.262C149.203 336.262 146.598 337.668 145.055 340ZM152 448C138.746 448 128 437.254 128 424C128 409.855 141.902 380.09 152 360.754C162.098 380.09 176 409.855 176 424C176 437.254 165.254 448 152 448Z" fill="black"/>
<path d="M85.2383 384C89.6602 384 93.2383 380.418 93.2383 376C93.2383 371.582 89.6602 368 85.2383 368C60.9492 368.641 38.1836 356.176 25.6406 335.363C13.0938 314.551 12.7031 288.602 24.6133 267.422C36.5234 246.238 58.8984 233.094 83.1992 233C85.7695 232.926 88.1484 231.625 89.5898 229.496C91.0352 227.371 91.3672 224.68 90.4883 222.266C87.2344 213.426 85.5586 204.082 85.5352 194.664C86.1563 148.484 124.02 111.516 170.199 112C190.645 112.027 210.406 119.352 225.93 132.656C227.742 134.258 229.496 135.855 231.168 137.535C231.68 138.055 232.23 138.551 232.77 139.137C234.813 141.352 236.738 143.676 238.535 146.098C238.969 146.672 239.398 147.246 239.816 147.832C241.59 150.336 243.227 152.934 244.711 155.617C245 156.137 245.266 156.672 245.512 157.215C247.035 160.078 248.387 163.031 249.559 166.055C250.344 168.117 251.941 169.766 253.98 170.609C256.02 171.453 258.316 171.418 260.328 170.512C268.414 166.828 277.195 164.918 286.078 164.91C315.027 164.695 340.18 184.762 346.398 213.031C347.285 217.336 351.473 220.121 355.785 219.273C358.184 218.801 360.586 218.473 362.984 218.215C364.176 218.098 365.383 218.062 366.574 218C367.77 217.938 368.922 217.84 370.09 217.832C371.625 217.832 373.16 217.887 374.695 217.961C375.496 217.961 376.367 218.023 377.199 218.09C378.984 218.23 380.762 218.449 382.535 218.711C383.047 218.785 383.566 218.855 384.078 218.945C385.996 219.266 387.891 219.656 389.77 220.121L390.855 220.391C392.785 220.895 394.688 221.465 396.566 222.113L397.594 222.48C399.441 223.145 401.273 223.871 403.062 224.672C403.457 224.848 403.863 225.031 404.215 225.215C405.953 226.016 407.664 226.887 409.336 227.824C433.055 240.91 447.844 265.801 448 292.887C447.434 334.859 413.008 368.457 371.031 368C366.613 368 363.031 371.582 363.031 376C363.031 380.418 366.613 384 371.031 384C421.84 384.449 463.426 343.691 464 292.887C463.887 262.703 448.742 234.559 423.617 217.832C429.105 204.566 431.953 190.355 432 176C432.031 126.734 399.848 83.2383 352.723 68.8672C305.598 54.4961 254.617 72.6289 227.152 113.527C210.34 102.137 190.508 96.0312 170.199 96C115.18 95.5117 70.1406 139.645 69.5117 194.664C69.5234 202.488 70.4961 210.277 72.4062 217.863C31.0352 223.449 0.128906 258.703 0 300.449C0.527344 347.031 38.6523 384.406 85.2383 384V384ZM320 80C372.996 80.0586 415.941 123.004 416 176C416.008 187.652 413.859 199.207 409.664 210.078C409.488 210 409.297 209.945 409.121 209.863C406.559 208.734 403.941 207.719 401.266 206.824C400.871 206.695 400.465 206.535 400.113 206.406C397.297 205.496 394.426 204.727 391.504 204.078C391.215 204.016 390.938 203.93 390.656 203.863C387.754 203.246 384.801 202.785 381.809 202.449C381.504 202.406 381.199 202.336 380.887 202.305C377.613 201.961 374.324 201.789 371.031 201.785C367.387 201.781 363.746 201.992 360.129 202.414C349.68 170.391 319.758 148.766 286.07 148.887C283.938 148.887 281.832 148.973 279.754 149.145C273.488 149.645 267.313 150.906 261.352 152.895C261.258 152.687 261.129 152.496 261.023 152.289C259.937 150.047 258.754 147.863 257.504 145.727C256.984 144.84 256.414 143.977 255.902 143.105C254.992 141.656 254.055 140.23 253.07 138.84C252.383 137.863 251.695 136.895 250.977 135.953C250.063 134.742 249.105 133.551 248.129 132.414C245.539 129.25 242.758 126.246 239.801 123.426C257.531 96.3867 287.668 80.0703 320 80Z" fill="black"/>
</g>
<defs>
<clipPath id="clip0_4_111">
<rect width="480" height="480" fill="white"/>
</clipPath>
</defs>
</svg>
