<svg width="512" height="512" viewBox="0 0 512 512" fill="none" xmlns="http://www.w3.org/2000/svg">
<g clip-path="url(#clip0_4_175)">
<path d="M341.333 367.333C429.699 367.333 501.333 295.699 501.333 207.333C501.333 118.967 429.699 47.333 341.333 47.333C252.967 47.333 181.333 118.967 181.333 207.333C181.333 295.699 252.967 367.333 341.333 367.333Z" fill="#949494"/>
<path d="M413 289C421.284 289 428 282.284 428 274C428 265.716 421.284 259 413 259C404.716 259 398 265.716 398 274C398 282.284 404.716 289 413 289Z" fill="#C4C4C4"/>
<path d="M238.5 232C245.404 232 251 226.404 251 219.5C251 212.596 245.404 207 238.5 207C231.596 207 226 212.596 226 219.5C226 226.404 231.596 232 238.5 232Z" fill="#C4C4C4"/>
<path d="M341.333 367.333C252.967 367.333 181.333 295.699 181.333 207.333C181.333 118.967 252.967 47.333 341.333 47.333C429.699 47.333 501.333 118.967 501.333 207.333C501.239 295.66 429.66 367.239 341.333 367.333ZM341.333 68.667C264.75 68.667 202.666 130.75 202.666 207.334C202.666 283.918 264.75 346 341.333 346C417.916 346 480 283.917 480 207.333C479.906 130.789 417.878 68.761 341.333 68.667Z" fill="black"/>
<path d="M302.5 133C313.822 133 323 123.822 323 112.5C323 101.178 313.822 92 302.5 92C291.178 92 282 101.178 282 112.5C282 123.822 291.178 133 302.5 133Z" fill="#C4C4C4"/>
<path d="M391 199C403.15 199 413 189.15 413 177C413 164.85 403.15 155 391 155C378.85 155 369 164.85 369 177C369 189.15 378.85 199 391 199Z" fill="#C4C4C4"/>
<path d="M325.5 238C334.06 238 341 231.06 341 222.5C341 213.94 334.06 207 325.5 207C316.94 207 310 213.94 310 222.5C310 231.06 316.94 238 325.5 238Z" fill="#C4C4C4"/>
<path d="M413.5 125C417.09 125 420 122.09 420 118.5C420 114.91 417.09 112 413.5 112C409.91 112 407 114.91 407 118.5C407 122.09 409.91 125 413.5 125Z" fill="#C4C4C4"/>
<path d="M318 318C323.523 318 328 313.523 328 308C328 302.477 323.523 298 318 298C312.477 298 308 302.477 308 308C308 313.523 312.477 318 318 318Z" fill="#C4C4C4"/>
<path d="M441.324 201.602C418.027 191.68 394.004 188.715 367.445 195.605C340.395 141.27 285.098 106.668 224 106.668C145.898 106.668 79.3828 163.309 66.3906 239.531C26.9648 252.375 0 288.875 0 330.668C0 383.594 43.0703 426.668 96 426.668H394.668C459.348 426.668 512 374.016 512 309.332C512 262.57 484.266 220.309 441.324 201.602V201.602Z" fill="#BBDEFB"/>
<path d="M334.039 277.867L270.039 256.535C266.922 255.508 263.594 255.937 260.906 257.664C258.199 259.414 256.406 262.273 256.043 265.473L247.062 346.281L218.09 331.777C215.105 330.305 211.605 330.262 208.641 331.734C205.652 333.184 203.52 335.957 202.859 339.242L170.859 499.242C169.855 504.215 172.523 509.227 177.238 511.187C178.582 511.723 179.969 512 181.332 512C184.813 512 188.18 510.293 190.207 507.242L248.98 419.07L283.223 436.203C286.016 437.59 289.281 437.676 292.18 436.48C295.082 435.242 297.258 432.789 298.176 429.824L340.844 291.156C342.57 285.609 339.543 279.703 334.039 277.867Z" fill="#FFC107"/>
<path d="M181.332 512C179.969 512 178.582 511.723 177.258 511.187C172.543 509.227 169.879 504.234 170.879 499.242L202.879 339.242C203.52 335.98 205.676 333.207 208.66 331.734C211.648 330.262 215.148 330.305 218.113 331.777L247.082 346.281L256.062 265.473C256.426 262.273 258.219 259.391 260.93 257.664C263.617 255.937 266.945 255.508 270.059 256.535L334.059 277.867C339.562 279.703 342.57 285.59 340.863 291.137L298.199 429.801C297.281 432.789 295.082 435.242 292.203 436.457C289.301 437.676 286.039 437.59 283.242 436.18L249.004 419.051L190.23 507.223C188.18 510.293 184.813 512 181.332 512V512ZM221.055 357.121L202.367 450.559L236.457 399.426C239.465 394.922 245.313 393.367 250.113 395.797L281.516 411.5L317.441 294.828L275.84 280.961L266.625 363.863C266.219 367.316 264.191 370.391 261.121 372.055C258.004 373.719 254.379 373.762 251.242 372.223L221.055 357.121Z" fill="black"/>
<path d="M394.668 426.668H352C346.113 426.668 341.332 421.887 341.332 416C341.332 410.113 346.113 405.332 352 405.332H394.668C447.594 405.332 490.668 362.262 490.668 309.332C490.668 256.406 447.594 213.332 394.668 213.332C385.344 213.332 375.594 215.039 364.887 218.582C359.617 220.352 353.898 217.707 351.742 212.609C329.941 161.215 279.809 128 224 128C154.305 128 95.2109 180.137 86.5508 249.281C86.0156 253.695 82.7734 257.281 78.4648 258.324C44.8438 266.453 21.332 296.215 21.332 330.668C21.332 371.84 54.8281 405.332 96 405.332H138.668C144.555 405.332 149.332 410.113 149.332 416C149.332 421.887 144.555 426.668 138.668 426.668H96C43.0703 426.668 0 383.594 0 330.668C0 288.77 26.9648 252.289 66.4102 239.551C79.4453 163.309 145.961 106.668 224 106.668C285.207 106.668 340.48 141.27 367.402 195.605C376.852 193.195 385.855 192 394.668 192C459.348 192 512 244.629 512 309.332C512 374.016 459.348 426.668 394.668 426.668V426.668Z" fill="black"/>
</g>
<defs>
<clipPath id="clip0_4_175">
<rect width="512" height="512" fill="white"/>
</clipPath>
</defs>
</svg>
