<svg width="512" height="512" viewBox="0 0 512 512" fill="none" xmlns="http://www.w3.org/2000/svg">
<g clip-path="url(#clip0_4_138)">
<path d="M319.876 286.424C385.386 286.424 438.492 238.279 438.492 178.888C438.492 119.497 385.386 71.3521 319.876 71.3521C254.367 71.3521 201.261 119.497 201.261 178.888C201.261 238.279 254.367 286.424 319.876 286.424Z" fill="#949494"/>
<path d="M373.006 233.776C379.148 233.776 384.126 229.262 384.126 223.695C384.126 218.127 379.148 213.613 373.006 213.613C366.865 213.613 361.886 218.127 361.886 223.695C361.886 229.262 366.865 233.776 373.006 233.776Z" fill="#C4C4C4"/>
<path d="M243.642 195.466C248.759 195.466 252.908 191.705 252.908 187.065C252.908 182.425 248.759 178.664 243.642 178.664C238.524 178.664 234.375 182.425 234.375 187.065C234.375 191.705 238.524 195.466 243.642 195.466Z" fill="#C4C4C4"/>
<path d="M291.088 128.929C299.481 128.929 306.285 122.76 306.285 115.151C306.285 107.541 299.481 101.373 291.088 101.373C282.694 101.373 275.89 107.541 275.89 115.151C275.89 122.76 282.694 128.929 291.088 128.929Z" fill="#C4C4C4"/>
<path d="M356.697 173.287C365.704 173.287 373.006 166.667 373.006 158.501C373.006 150.335 365.704 143.715 356.697 143.715C347.689 143.715 340.387 150.335 340.387 158.501C340.387 166.667 347.689 173.287 356.697 173.287Z" fill="#C4C4C4"/>
<path d="M308.139 199.499C314.485 199.499 319.629 194.835 319.629 189.081C319.629 183.328 314.485 178.664 308.139 178.664C301.793 178.664 296.648 183.328 296.648 189.081C296.648 194.835 301.793 199.499 308.139 199.499Z" fill="#C4C4C4"/>
<path d="M373.377 123.552C376.038 123.552 378.195 121.596 378.195 119.183C378.195 116.771 376.038 114.815 373.377 114.815C370.715 114.815 368.558 116.771 368.558 119.183C368.558 121.596 370.715 123.552 373.377 123.552Z" fill="#C4C4C4"/>
<path d="M302.579 253.267C306.673 253.267 309.992 250.258 309.992 246.546C309.992 242.834 306.673 239.825 302.579 239.825C298.484 239.825 295.165 242.834 295.165 246.546C295.165 250.258 298.484 253.267 302.579 253.267Z" fill="#C4C4C4"/>
<path d="M441.324 201.602C418.027 191.66 394.004 188.715 367.445 195.605C340.395 141.27 285.098 106.668 224 106.668C145.898 106.668 79.3828 163.309 66.3906 239.531C26.9648 252.375 0 288.875 0 330.668C0 383.594 43.0703 426.668 96 426.668H394.668C459.348 426.668 512 374.039 512 309.332C512 262.57 484.266 220.309 441.324 201.602V201.602Z" fill="#BBDEFB"/>
<path d="M117.332 512C111.445 512 106.668 507.223 106.668 501.332V458.668C106.668 452.777 111.445 448 117.332 448C123.223 448 128 452.777 128 458.668V501.332C128 507.223 123.223 512 117.332 512Z" fill="black"/>
<path d="M135.809 501.332C133.996 501.332 132.16 500.887 130.477 499.902L93.5234 478.57C88.4258 475.625 86.6758 469.098 89.6211 464C92.5664 458.902 99.0937 457.195 104.191 460.098L141.141 481.43C146.238 484.375 147.988 490.902 145.047 496C143.082 499.414 139.477 501.332 135.809 501.332V501.332Z" fill="black"/>
<path d="M98.8594 501.332C95.1875 501.332 91.5859 499.414 89.6211 496C86.6562 490.902 88.4062 484.375 93.5234 481.43L130.477 460.098C135.551 457.172 142.102 458.879 145.047 464C148.012 469.098 146.262 475.625 141.141 478.57L104.191 499.902C102.508 500.887 100.672 501.332 98.8594 501.332V501.332Z" fill="black"/>
<path d="M202.668 512C196.777 512 192 507.223 192 501.332V458.668C192 452.777 196.777 448 202.668 448C208.555 448 213.332 452.777 213.332 458.668V501.332C213.332 507.223 208.555 512 202.668 512Z" fill="black"/>
<path d="M221.141 501.332C219.328 501.332 217.492 500.887 215.809 499.902L178.859 478.57C173.762 475.625 172.012 469.098 174.953 464C177.898 458.902 184.426 457.195 189.523 460.098L226.477 481.43C231.574 484.375 233.324 490.902 230.379 496C228.414 499.414 224.812 501.332 221.141 501.332V501.332Z" fill="black"/>
<path d="M184.191 501.332C180.523 501.332 176.918 499.414 174.953 496C171.988 490.902 173.738 484.375 178.859 481.43L215.809 460.098C220.887 457.172 227.434 458.879 230.379 464C233.344 469.098 231.594 475.625 226.477 478.57L189.523 499.902C187.84 500.887 186.004 501.332 184.191 501.332V501.332Z" fill="black"/>
<path d="M288 512C282.113 512 277.332 507.223 277.332 501.332V458.668C277.332 452.777 282.113 448 288 448C293.887 448 298.668 452.777 298.668 458.668V501.332C298.668 507.223 293.887 512 288 512Z" fill="black"/>
<path d="M306.477 501.332C304.66 501.332 302.828 500.887 301.141 499.902L264.191 478.57C259.094 475.625 257.344 469.098 260.289 464C263.231 458.902 269.762 457.195 274.859 460.098L311.809 481.43C316.906 484.375 318.656 490.902 315.711 496C313.75 499.414 310.145 501.332 306.477 501.332V501.332Z" fill="black"/>
<path d="M269.523 501.332C265.855 501.332 262.25 499.414 260.289 496C257.324 490.902 259.07 484.375 264.191 481.43L301.141 460.098C306.219 457.172 312.77 458.879 315.711 464C318.676 469.098 316.93 475.625 311.809 478.57L274.859 499.902C273.172 500.887 271.34 501.332 269.523 501.332V501.332Z" fill="black"/>
<path d="M160 448C154.113 448 149.332 443.223 149.332 437.332V394.668C149.332 388.777 154.113 384 160 384C165.887 384 170.668 388.777 170.668 394.668V437.332C170.668 443.223 165.887 448 160 448Z" fill="black"/>
<path d="M178.477 437.332C176.66 437.332 174.828 436.887 173.141 435.902L136.191 414.57C131.094 411.625 129.344 405.098 132.289 400C135.23 394.902 141.762 393.172 146.859 396.098L183.809 417.43C188.906 420.375 190.656 426.902 187.711 432C185.75 435.414 182.145 437.332 178.477 437.332V437.332Z" fill="black"/>
<path d="M141.523 437.332C137.855 437.332 134.25 435.414 132.289 432C129.324 426.902 131.07 420.375 136.191 417.43L173.141 396.098C178.219 393.152 184.77 394.879 187.711 400C190.676 405.098 188.93 411.625 183.809 414.57L146.859 435.902C145.172 436.887 143.34 437.332 141.523 437.332V437.332Z" fill="black"/>
<path d="M245.332 448C239.445 448 234.668 443.223 234.668 437.332V394.668C234.668 388.777 239.445 384 245.332 384C251.223 384 256 388.777 256 394.668V437.332C256 443.223 251.223 448 245.332 448Z" fill="black"/>
<path d="M263.809 437.332C261.996 437.332 260.16 436.887 258.477 435.902L221.523 414.57C216.426 411.625 214.676 405.098 217.621 400C220.566 394.902 227.094 393.172 232.191 396.098L269.141 417.43C274.238 420.375 275.988 426.902 273.047 432C271.082 435.414 267.477 437.332 263.809 437.332V437.332Z" fill="black"/>
<path d="M226.859 437.332C223.187 437.332 219.586 435.414 217.621 432C214.656 426.902 216.406 420.375 221.523 417.43L258.477 396.098C263.551 393.152 270.102 394.879 273.047 400C276.012 405.098 274.262 411.625 269.141 414.57L232.191 435.902C230.508 436.887 228.672 437.332 226.859 437.332V437.332Z" fill="black"/>
<path d="M330.668 448C324.777 448 320 443.223 320 437.332V394.668C320 388.777 324.777 384 330.668 384C336.555 384 341.332 388.777 341.332 394.668V437.332C341.332 443.223 336.555 448 330.668 448V448Z" fill="black"/>
<path d="M349.141 437.332C347.328 437.332 345.492 436.887 343.809 435.902L306.859 414.57C301.762 411.625 300.012 405.098 302.953 400C305.898 394.902 312.426 393.172 317.523 396.098L354.477 417.43C359.574 420.375 361.324 426.902 358.379 432C356.414 435.414 352.812 437.332 349.141 437.332V437.332Z" fill="black"/>
<path d="M312.191 437.332C308.523 437.332 304.918 435.414 302.953 432C299.988 426.902 301.738 420.375 306.859 417.43L343.809 396.098C348.887 393.152 355.434 394.879 358.379 400C361.344 405.098 359.594 411.625 354.477 414.57L317.523 435.902C315.84 436.887 314.004 437.332 312.191 437.332V437.332Z" fill="black"/>
<path d="M437.332 213.332C431.445 213.332 426.668 208.555 426.668 202.668C426.668 137.961 374.016 85.332 309.332 85.332C285.035 85.332 245.207 98.0703 233.602 121.984C231.02 127.297 224.641 129.492 219.348 126.91C214.039 124.352 211.84 117.973 214.398 112.684C231.594 77.2266 281.75 64 309.332 64C385.793 64 448 126.207 448 202.668C448 208.555 443.223 213.332 437.332 213.332V213.332Z" fill="black"/>
<path d="M394.668 426.668C388.777 426.668 384 421.887 384 416C384 410.113 388.777 405.332 394.668 405.332C447.594 405.332 490.668 362.262 490.668 309.332C490.668 256.406 447.594 213.332 394.668 213.332C385.344 213.332 375.594 215.039 364.887 218.582C359.594 220.332 353.898 217.707 351.742 212.609C329.941 161.215 279.809 128 224 128C154.305 128 95.2109 180.137 86.5508 249.281C86.0156 253.695 82.7734 257.281 78.4648 258.324C44.8438 266.453 21.332 296.215 21.332 330.668C21.332 371.84 54.8281 405.332 96 405.332C101.887 405.332 106.668 410.113 106.668 416C106.668 421.887 101.887 426.668 96 426.668C43.0703 426.668 0 383.594 0 330.668C0 288.77 26.9648 252.289 66.4102 239.551C79.4453 163.309 145.961 106.668 224 106.668C285.207 106.668 340.48 141.27 367.402 195.605C376.852 193.195 385.855 192 394.668 192C459.348 192 512 244.629 512 309.332C512 374.039 459.348 426.668 394.668 426.668V426.668Z" fill="black"/>
</g>
<defs>
<clipPath id="clip0_4_138">
<rect width="512" height="512" fill="white"/>
</clipPath>
</defs>
</svg>
