<svg width="512" height="512" viewBox="0 0 512 512" fill="none" xmlns="http://www.w3.org/2000/svg">
<g clip-path="url(#clip0_4_82)">
<path d="M346.335 250.77C415.611 250.77 471.77 194.611 471.77 125.335C471.77 56.0583 415.611 -0.101166 346.335 -0.101166C277.058 -0.101166 220.899 56.0583 220.899 125.335C220.899 194.611 277.058 250.77 346.335 250.77Z" fill="#949494"/>
<ellipse cx="402.52" cy="177.6" rx="11.7596" ry="11.7595" fill="#C4C4C4"/>
<ellipse cx="265.716" cy="134.873" rx="9.79963" ry="9.79973" fill="#C4C4C4"/>
<path d="M346.335 250.77C277.058 250.77 220.899 194.611 220.899 125.335C220.899 56.058 277.058 -0.101166 346.335 -0.101166C415.611 -0.101166 471.77 56.058 471.77 125.335C471.697 194.581 415.581 250.697 346.335 250.77ZM346.335 16.6241C286.296 16.6241 237.623 65.2955 237.623 125.335C237.623 185.375 286.296 234.046 346.335 234.046C406.374 234.046 455.046 185.374 455.046 125.335C454.972 65.3261 406.344 16.6978 346.335 16.6241Z" fill="black"/>
<ellipse cx="315.891" cy="50.9879" rx="16.0714" ry="16.0714" fill="#C4C4C4"/>
<ellipse cx="385.272" cy="101.554" rx="17.2474" ry="17.2473" fill="#C4C4C4"/>
<ellipse cx="333.922" cy="137.225" rx="12.1516" ry="12.1516" fill="#C4C4C4"/>
<ellipse cx="402.912" cy="55.6919" rx="5.09583" ry="5.09581" fill="#C4C4C4"/>
<ellipse cx="328.042" cy="204.255" rx="7.83971" ry="7.83972" fill="#C4C4C4"/>
<path d="M441.324 201.602C418.047 191.66 394.004 188.715 367.445 195.605C340.395 141.27 285.098 106.668 224 106.668C145.898 106.668 79.3828 163.309 66.3906 239.531C26.9648 252.375 0 288.875 0 330.668C0 383.594 43.0703 426.668 96 426.668H394.668C459.348 426.668 512 374.039 512 309.332C512 262.57 484.266 220.309 441.324 201.602V201.602Z" fill="#BBDEFB"/>
<path d="M298.625 384C281.535 384 272.512 376.789 265.281 371.008C259.223 366.164 254.848 362.668 245.246 362.668C235.668 362.668 231.531 365.973 225.258 370.988C218.027 376.789 209.023 384 191.938 384C174.871 384 165.867 376.789 158.633 371.008C152.383 365.973 148.246 362.668 138.668 362.668C132.777 362.668 128 357.887 128 352C128 346.113 132.777 341.332 138.668 341.332C155.734 341.332 164.758 348.543 171.988 354.348C178.219 359.359 182.379 362.668 191.938 362.668C201.516 362.668 205.676 359.359 211.945 354.324C219.18 348.543 228.18 341.332 245.246 341.332C262.336 341.332 271.359 348.543 278.594 354.324C284.652 359.168 289.023 362.668 298.625 362.668C308.223 362.668 312.598 359.168 318.633 354.324C325.887 348.543 334.91 341.332 352 341.332C357.887 341.332 362.668 346.113 362.668 352C362.668 357.887 357.887 362.668 352 362.668C342.398 362.668 338.027 366.164 331.988 371.008C324.734 376.789 315.711 384 298.625 384V384Z" fill="black"/>
<path d="M298.625 448C281.535 448 272.512 440.789 265.281 435.008C259.223 430.164 254.848 426.668 245.246 426.668C235.668 426.668 231.531 429.973 225.258 434.988C218.027 440.789 209.023 448 191.938 448C174.871 448 165.867 440.789 158.633 435.008C152.383 429.973 148.246 426.668 138.668 426.668C132.777 426.668 128 421.887 128 416C128 410.113 132.777 405.332 138.668 405.332C155.734 405.332 164.758 412.543 171.988 418.348C178.219 423.359 182.379 426.668 191.938 426.668C201.516 426.668 205.676 423.359 211.945 418.324C219.18 412.543 228.18 405.332 245.246 405.332C262.336 405.332 271.359 412.543 278.594 418.324C284.652 423.168 289.023 426.668 298.625 426.668C308.223 426.668 312.598 423.168 318.633 418.324C325.887 412.543 334.91 405.332 352 405.332C357.887 405.332 362.668 410.113 362.668 416C362.668 421.887 357.887 426.668 352 426.668C342.398 426.668 338.027 430.164 331.988 435.008C324.734 440.789 315.711 448 298.625 448V448Z" fill="black"/>
<path d="M298.625 512C281.535 512 272.512 504.789 265.281 499.008C259.223 494.164 254.848 490.668 245.246 490.668C235.668 490.668 231.531 493.973 225.258 498.988C218.027 504.789 209.023 512 191.938 512C174.871 512 165.867 504.789 158.633 499.008C152.383 493.973 148.246 490.668 138.668 490.668C132.777 490.668 128 485.887 128 480C128 474.113 132.777 469.332 138.668 469.332C155.734 469.332 164.758 476.543 171.988 482.348C178.219 487.359 182.379 490.668 191.938 490.668C201.516 490.668 205.676 487.359 211.945 482.324C219.18 476.543 228.18 469.332 245.246 469.332C262.336 469.332 271.359 476.543 278.594 482.324C284.652 487.168 289.023 490.668 298.625 490.668C308.223 490.668 312.598 487.168 318.633 482.324C325.887 476.543 334.91 469.332 352 469.332C357.887 469.332 362.668 474.113 362.668 480C362.668 485.887 357.887 490.668 352 490.668C342.398 490.668 338.027 494.164 331.988 499.008C324.734 504.789 315.711 512 298.625 512V512Z" fill="black"/>
<path d="M394.668 426.668C388.777 426.668 384 421.887 384 416C384 410.113 388.777 405.332 394.668 405.332C447.594 405.332 490.668 362.262 490.668 309.332C490.668 256.406 447.594 213.332 394.668 213.332C385.344 213.332 375.594 215.039 364.887 218.582C359.594 220.332 353.898 217.707 351.742 212.609C329.941 161.215 279.809 128 224 128C154.305 128 95.2109 180.137 86.5508 249.281C86.0156 253.695 82.7734 257.281 78.4648 258.324C44.8438 266.453 21.332 296.215 21.332 330.668C21.332 371.84 54.8281 405.332 96 405.332C101.887 405.332 106.668 410.113 106.668 416C106.668 421.887 101.887 426.668 96 426.668C43.0703 426.668 0 383.594 0 330.668C0 288.77 26.9648 252.289 66.4102 239.551C79.4453 163.309 145.961 106.668 224 106.668C285.207 106.668 340.48 141.27 367.402 195.605C376.852 193.195 385.855 192 394.668 192C459.348 192 512 244.629 512 309.332C512 374.039 459.348 426.668 394.668 426.668V426.668Z" fill="black"/>
</g>
<defs>
<clipPath id="clip0_4_82">
<rect width="512" height="512" fill="white"/>
</clipPath>
</defs>
</svg>
